<?xml version="1.0" encoding="utf-8"?>
<!-- Generator: Adobe Illustrator 24.1.0, SVG Export Plug-In . SVG Version: 6.00 Build 0)  -->
<svg version="1.1" id="Calque_2" xmlns="http://www.w3.org/2000/svg" xmlns:xlink="http://www.w3.org/1999/xlink" x="0px" y="0px"
	 viewBox="0 0 300 119" style="enable-background:new 0 0 300 119;" xml:space="preserve">
<style type="text/css">
	.st0{fill:#D29E0E;}
	.st1{fill:#FFFFFF;}
</style>
<g>
	<path class="st0" d="M48.3,53c-2.2,3.9-4.7,7.6-7.4,11.3c7.6-2.5,15.1-5.3,22.4-8.3C58.3,54.9,53.3,53.9,48.3,53 M47,51.9
		C56.3,35.4,59.9,16.8,56.9,0c-2,17.2-11,34.9-24.9,49.7c-1.3,6.6-3.6,13.1-6.6,19.1c4.2-1.1,8.4-2.3,12.6-3.6
		C41.5,60.9,44.4,56.5,47,51.9 M2.5,70.8c10.3-6,19.8-13.3,28-22c1.9-9.7,1.7-19.6-0.4-28.9c-2.1,18.6-12.2,37-28,51.1
		C2.2,71,2.4,70.9,2.5,70.8 M34.5,68c-3.3,1-6.7,1.9-10.1,2.8h0c-3.7,6.8-8.3,13.1-13.8,18.7C20.3,83.4,29,76,36.1,67.6
		C35.6,67.7,35.1,67.9,34.5,68 M24.3,67.2c2.3-4.9,4.2-10,5.5-15.2C21.1,60.8,10.9,68.2,0,74.2c7.8-1.3,15.6-2.9,23.3-4.8
		C23.6,68.6,24,67.9,24.3,67.2"/>
	<path class="st1" d="M67.6,83c0,3.4-2.1,5.3-6,5.3h-5.3v5.4h-3.7V77.8h9C65.5,77.8,67.6,79.6,67.6,83 M63.8,83
		c0-1.5-0.8-2.1-2.6-2.1h-4.9v4.2h4.9C63,85.1,63.8,84.5,63.8,83"/>
	<polygon class="st1" points="78.4,80.9 78.4,84.1 87.6,84.1 87.6,87.3 78.4,87.3 78.4,90.6 89.2,90.6 89.2,93.7 74.8,93.7
		74.8,77.8 89.2,77.8 89.2,80.9 	"/>
	<path class="st1" d="M108.5,93.7l-4-5.9h-4v5.9h-3.7V77.8h9.5c3.7,0,5.7,1.8,5.7,5c0,2.5-1.2,4.1-3.4,4.8l4.2,6.1H108.5z
		 M100.5,84.7h5.4c1.6,0,2.4-0.6,2.4-1.9c0-1.3-0.8-1.9-2.4-1.9h-5.4V84.7z"/>
	<polygon class="st1" points="124,80.9 124,84.5 133.2,84.5 133.2,87.6 124,87.6 124,93.7 120.4,93.7 120.4,77.8 134.8,77.8
		134.8,80.9 	"/>
	<path class="st1" d="M140.8,85.7c0-4.9,3.5-8.3,8.8-8.3c5.3,0,8.8,3.3,8.8,8.3c0,4.9-3.5,8.3-8.8,8.3
		C144.3,94,140.8,90.7,140.8,85.7 M154.6,85.7c0-3-2-5-5-5c-3,0-5,2-5,5c0,3,2,5,5,5C152.6,90.8,154.6,88.7,154.6,85.7"/>
	<path class="st1" d="M177.5,93.7l-4-5.9h-4v5.9h-3.7V77.8h9.5c3.7,0,5.7,1.8,5.7,5c0,2.5-1.2,4.1-3.4,4.8l4.2,6.1H177.5z
		 M169.5,84.7h5.4c1.6,0,2.4-0.6,2.4-1.9c0-1.3-0.8-1.9-2.4-1.9h-5.4V84.7z"/>
	<polygon class="st1" points="208.7,93.7 205,93.7 205,82.1 200,93.7 197.5,93.7 192.4,82.1 192.4,93.7 188.9,93.7 188.9,77.8
		194,77.8 198.8,88.8 203.6,77.8 208.7,77.8 	"/>
	<path class="st1" d="M227.9,90.3h-7.2l-1.4,3.4h-3.8l7.1-15.9h3.8l7.1,15.9h-4L227.9,90.3z M222,87.3h4.6l-2.3-5.8L222,87.3z"/>
	<polygon class="st1" points="255.6,77.8 255.6,93.7 252.2,93.7 243.6,82.2 243.6,93.7 240.1,93.7 240.1,77.8 244.4,77.8 252.1,88
		252.1,77.8 	"/>
	<path class="st1" d="M263.1,85.8c0-5.2,3.5-8.3,9-8.3c2.2,0,4.1,0.5,5.8,1.6l-1.1,3c-1.6-0.9-3-1.3-4.5-1.3c-3.4,0-5.5,1.9-5.5,5
		c0,3.1,2.1,5,5.7,5c1.7,0,3.2-0.4,4.8-1.4l1.2,3c-1.6,1.1-3.7,1.7-6.2,1.7C266.5,94,263.1,90.9,263.1,85.8"/>
	<polygon class="st1" points="289.2,80.9 289.2,84.1 298.5,84.1 298.5,87.3 289.2,87.3 289.2,90.6 300,90.6 300,93.7 285.6,93.7
		285.6,77.8 300,77.8 300,80.9 	"/>
	<polygon class="st1" points="69.7,106.3 65.7,119 63.5,119 60.5,109.6 57.6,119 55.3,119 51.3,106.3 53.7,106.3 56.6,115.8
		59.5,106.3 61.6,106.3 64.5,115.8 67.4,106.3 	"/>
	<polygon class="st1" points="81.5,108.2 81.5,111.6 89.3,111.6 89.3,113.6 81.5,113.6 81.5,117.1 90.6,117.1 90.6,119 79.3,119
		79.3,106.3 90.6,106.3 90.6,108.2 	"/>
	<path class="st1" d="M109.9,116h-6.4l-1.4,3.1h-2.4l5.8-12.8h2.3l5.8,12.8h-2.5L109.9,116z M104.3,114.1h4.7l-2.4-5.4L104.3,114.1z
		"/>
	<polygon class="st1" points="134.2,117.1 134.2,119 123.2,119 123.2,106.3 125.5,106.3 125.5,117.1 	"/>
	<polygon class="st1" points="152.5,108.2 147.5,108.2 147.5,119 145.3,119 145.3,108.2 140.3,108.2 140.3,106.3 152.5,106.3 	"/>
	<polygon class="st1" points="174.2,106.3 174.2,119 171.9,119 171.9,113.6 164.3,113.6 164.3,119 162,119 162,106.3 164.3,106.3
		164.3,111.6 171.9,111.6 171.9,106.3 	"/>
</g>
</svg>
